<svg width="26" height="25" viewBox="0 0 26 25" fill="none" xmlns="http://www.w3.org/2000/svg">
<g clip-path="url(#clip0_942_3861)">
<path d="M19.3735 17.117L23.8336 21.399L22.3601 22.814L17.901 18.531C16.2419 19.8082 14.1782 20.5029 12.0518 20.5C6.87839 20.5 2.67969 16.468 2.67969 11.5C2.67969 6.532 6.87839 2.5 12.0518 2.5C17.2252 2.5 21.4239 6.532 21.4239 11.5C21.4269 13.542 20.7035 15.5237 19.3735 17.117ZM17.2845 16.375C18.6061 15.0699 19.3442 13.3204 19.3412 11.5C19.3412 7.632 16.0787 4.5 12.0518 4.5C8.02387 4.5 4.76238 7.632 4.76238 11.5C4.76238 15.367 8.02387 18.5 12.0518 18.5C13.9475 18.5029 15.7693 17.7941 17.1283 16.525L17.2845 16.375Z" fill="#F6CC5C"/>
</g>
<defs>
<clipPath id="clip0_942_3861">
<rect width="24.9923" height="24" fill="white" transform="translate(0.59668 0.5)"/>
</clipPath>
</defs>
</svg>
